<?xml version="1.0" standalone="no"?>
<!DOCTYPE svg PUBLIC "-//W3C//DTD SVG 20010904//EN"
 "http://www.w3.org/TR/2001/REC-SVG-20010904/DTD/svg10.dtd">
<svg version="1.0" xmlns="http://www.w3.org/2000/svg"
 width="1024.000000pt" height="1024.000000pt" viewBox="0 0 1024.000000 1024.000000"
 preserveAspectRatio="xMidYMid meet">
<metadata>
Created by potrace 1.14, written by Peter Selinger 2001-2017
</metadata>
<g transform="translate(0.000000,1024.000000) scale(0.100000,-0.100000)"
fill="#000000" stroke="none">
<path d="M3500 10204 c0 -19 6 -42 14 -50 16 -16 86 -19 86 -4 0 6 7 10 16 10
8 0 12 -4 9 -10 -3 -5 0 -10 7 -10 8 -1 4 -9 -9 -19 -13 -11 -23 -24 -23 -30
0 -6 -13 -11 -30 -11 -28 0 -30 -2 -30 -40 0 -22 -4 -40 -10 -40 -5 0 -10 -7
-10 -15 0 -16 -16 -21 -23 -7 -3 4 -1 31 2 59 8 61 -2 88 -23 61 -7 -10 -18
-18 -25 -18 -6 0 -11 -6 -11 -14 0 -8 -8 -17 -18 -20 -17 -6 -62 -88 -62 -114
0 -7 -7 -12 -15 -12 -11 0 -15 -11 -15 -40 0 -22 4 -40 10 -40 16 0 79 73 80
92 0 24 14 30 35 14 17 -12 17 -15 1 -46 -9 -18 -16 -44 -16 -57 0 -12 -9 -32
-20 -43 -11 -11 -23 -32 -26 -46 -4 -15 -15 -35 -26 -46 -10 -10 -16 -23 -13
-28 4 -6 -7 -22 -24 -36 -19 -15 -30 -33 -28 -46 1 -11 -4 -23 -10 -25 -7 -3
-13 2 -13 11 0 10 -9 16 -25 16 -22 0 -25 4 -25 40 0 29 -4 40 -15 40 -8 0
-15 -7 -15 -15 0 -9 -7 -27 -16 -40 -15 -23 -15 -25 0 -25 10 0 16 -8 16 -21
0 -19 -2 -20 -16 -8 -14 11 -18 10 -30 -6 -8 -10 -14 -25 -14 -32 0 -7 -11
-13 -24 -13 -21 0 -24 -5 -29 -57 -6 -54 -4 -59 24 -83 22 -21 29 -35 29 -63
0 -36 -1 -37 -35 -37 -35 0 -35 0 -35 45 0 33 -4 45 -15 45 -8 0 -15 -7 -15
-15 0 -8 -9 -19 -19 -25 -12 -6 -22 -26 -26 -49 -4 -22 -13 -45 -21 -52 -8 -6
-14 -17 -14 -24 0 -8 -18 -31 -40 -53 -22 -21 -40 -46 -40 -55 0 -10 -8 -17
-20 -17 -15 0 -26 -13 -40 -42 l-19 -43 0 40 c-1 63 8 85 35 85 21 0 24 5 24
40 0 36 3 40 25 40 23 0 25 4 25 40 0 35 -3 40 -23 40 -27 0 -67 -38 -67 -63
0 -9 -4 -17 -10 -17 -5 0 -10 -11 -10 -25 0 -22 -4 -25 -35 -25 -58 0 -75 -26
-75 -115 0 -73 1 -75 25 -75 23 0 25 -4 25 -40 0 -22 -4 -40 -10 -40 -5 0 -10
-18 -10 -40 0 -22 -4 -40 -10 -40 -5 0 -10 18 -10 40 0 22 5 40 10 40 6 0 10
14 10 30 0 17 -3 30 -7 30 -17 0 -133 -127 -133 -147 0 -12 -4 -25 -10 -28 -6
-4 -10 17 -10 54 0 55 2 61 21 61 23 0 21 18 -4 34 -12 8 -22 8 -34 0 -14 -9
-17 -22 -15 -63 4 -49 3 -51 -22 -51 -24 0 -26 -4 -26 -40 0 -22 5 -40 10 -40
6 0 10 -18 10 -40 0 -22 -4 -40 -10 -40 -5 0 -10 18 -10 40 0 40 0 40 -39 40
-22 0 -42 5 -44 13 -4 10 -6 10 -6 0 -1 -16 -61 -18 -61 -2 0 6 -7 4 -15 -4
-11 -12 -14 -41 -14 -132 1 -64 -1 -119 -5 -122 -3 -4 -6 0 -6 8 0 11 -2 11
-10 -1 -7 -11 -10 -12 -10 -2 0 10 -4 10 -16 -2 -8 -9 -20 -16 -25 -16 -14 0
-11 -37 4 -44 10 -5 10 -7 0 -12 -15 -7 -18 -74 -3 -74 6 0 10 16 10 35 0 28
4 35 20 35 17 0 20 -7 20 -47 0 -35 3 -44 10 -33 9 13 10 13 10 -1 0 -8 -11
-26 -25 -39 l-25 -23 -6 31 c-4 18 -12 32 -18 33 -71 7 -102 0 -76 -16 5 -3
10 -19 10 -36 0 -25 -4 -29 -28 -29 -15 0 -34 6 -40 12 -10 10 -12 0 -11 -50
1 -34 6 -62 10 -62 5 0 9 5 9 10 0 6 14 10 30 10 28 0 30 2 30 40 0 33 3 40
20 40 17 0 20 -7 20 -49 0 -42 -4 -52 -30 -72 -16 -13 -30 -31 -30 -41 0 -9
-13 -28 -30 -41 -18 -16 -30 -35 -30 -50 0 -14 -7 -27 -14 -30 -8 -3 -18 -22
-22 -42 -3 -19 -15 -40 -25 -46 -11 -5 -19 -19 -19 -29 0 -11 -7 -20 -15 -20
-8 0 -19 -9 -25 -20 -6 -11 -17 -20 -25 -20 -18 0 -20 -16 -2 -24 8 -3 3 -13
-15 -28 -16 -13 -28 -29 -28 -35 0 -6 -4 -13 -9 -15 -5 -1 -12 -36 -16 -75
l-7 -73 33 -1 34 -1 -30 -8 c-16 -4 -24 -8 -16 -9 10 -1 7 -10 -12 -29 -31
-32 -34 -42 -12 -42 8 0 15 -7 15 -15 0 -10 -10 -15 -30 -15 -16 0 -30 5 -30
10 0 6 -9 21 -20 32 -20 21 -20 21 -35 2 -16 -22 -20 -94 -5 -94 6 0 10 7 10
15 0 8 7 15 15 15 12 0 15 -13 15 -55 0 -48 -3 -55 -19 -55 -15 0 -21 8 -24
38 l-4 37 -1 -41 c-2 -30 -9 -47 -32 -69 -17 -16 -29 -34 -29 -39 4 -33 -3
-56 -16 -56 -8 0 -15 -7 -15 -15 0 -8 7 -15 15 -15 25 0 17 -16 -25 -54 -22
-20 -40 -40 -40 -46 0 -5 -4 -10 -8 -10 -19 0 -28 -45 -20 -99 4 -31 5 -86 2
-123 -6 -63 -8 -68 -30 -68 -22 0 -24 -4 -24 -49 0 -40 -3 -50 -20 -54 -25 -6
-26 -25 -2 -34 25 -10 46 -33 37 -41 -4 -4 -10 -1 -12 6 -3 6 -11 12 -20 12
-12 0 -14 -14 -11 -77 2 -64 0 -78 -12 -78 -10 0 -16 -13 -18 -42 -2 -24 -7
-43 -12 -43 -4 0 -6 19 -3 42 5 32 3 39 -7 33 -9 -5 -11 -23 -6 -59 5 -44 3
-53 -14 -64 -26 -16 -26 -32 0 -32 17 0 20 -7 20 -40 0 -22 -4 -40 -10 -40 -5
0 -10 14 -10 30 0 17 -3 30 -7 30 -13 -1 -53 -38 -53 -49 0 -6 -8 -11 -18 -11
-9 0 -23 -9 -30 -20 -7 -11 -17 -20 -22 -20 -6 0 -10 9 -10 20 0 11 7 20 15
20 23 0 21 76 -3 82 -15 4 -17 0 -14 -23 4 -28 3 -29 -37 -29 -30 0 -41 -4
-41 -15 0 -8 7 -15 16 -15 9 0 14 -7 12 -17 -3 -12 -12 -17 -26 -16 -13 2 -22
-3 -22 -11 0 -8 -13 -20 -30 -28 -34 -15 -39 -28 -10 -28 25 0 27 -36 3 -88
l-16 -37 -6 35 -6 34 -13 -29 c-8 -17 -16 -54 -19 -82 -4 -35 -10 -53 -19 -53
-8 0 -14 -9 -14 -19 0 -10 -7 -21 -15 -25 -19 -7 -19 -36 0 -36 8 0 15 9 15
20 0 13 7 20 20 20 18 0 19 -5 13 -60 -5 -57 -5 -60 16 -60 19 0 21 5 21 60 0
47 -3 60 -15 60 -8 0 -15 9 -15 20 0 11 7 20 15 20 9 0 15 9 15 24 0 39 10 56
34 56 23 0 46 38 46 77 0 13 5 23 10 23 14 0 13 -36 -2 -59 -18 -30 -3 -51 37
-51 24 0 35 -4 35 -15 0 -8 4 -15 9 -15 13 0 23 -32 13 -39 -5 -3 -14 -15 -20
-26 -11 -20 -12 -20 -18 3 -5 16 -14 22 -35 22 -27 0 -29 -3 -29 -40 0 -26 -5
-40 -13 -40 -16 0 -10 -71 7 -82 8 -6 8 -10 -1 -16 -6 -4 -15 -20 -18 -35 -5
-20 -13 -27 -31 -27 -20 0 -24 5 -24 30 0 23 4 30 20 30 11 0 20 5 20 10 0 6
-8 10 -17 10 -25 0 -103 -80 -103 -106 0 -13 -8 -24 -20 -27 -12 -3 -20 -14
-20 -26 0 -11 -9 -26 -20 -33 -11 -7 -20 -21 -20 -30 0 -10 -4 -18 -8 -18 -4
0 -19 -18 -32 -40 -14 -22 -28 -40 -32 -40 -5 0 -8 -6 -8 -14 0 -7 -6 -19 -14
-25 -8 -7 -18 -27 -22 -44 -3 -18 -19 -44 -35 -58 -22 -19 -29 -35 -29 -62 0
-21 4 -37 9 -37 5 0 12 -10 14 -22 l4 -23 2 23 c1 18 7 22 36 22 41 0 42 -3
15 -30 -11 -11 -20 -26 -20 -34 0 -7 -9 -16 -20 -19 -11 -3 -20 -12 -20 -20 0
-21 -52 -137 -62 -137 -16 0 -48 -40 -48 -60 0 -11 -4 -20 -9 -20 -13 0 -41
-59 -41 -87 0 -13 -7 -26 -15 -29 -8 -4 -15 -15 -15 -25 0 -10 -4 -19 -10 -19
-5 0 -10 -7 -10 -15 0 -8 -7 -15 -15 -15 -10 0 -15 -10 -15 -34 0 -26 -8 -41
-38 -68 -21 -19 -45 -49 -54 -68 -17 -35 -17 -35 7 -38 22 -3 25 -8 25 -43 0
-21 -4 -39 -10 -39 -5 0 -10 14 -10 31 l0 31 -39 -33 c-23 -20 -40 -43 -40
-56 -1 -13 -7 -23 -16 -23 -10 0 -15 -10 -15 -34 0 -79 -13 -156 -26 -156 -10
0 -14 13 -14 41 0 38 -1 39 -17 23 -14 -13 -17 -31 -15 -80 2 -38 -1 -64 -7
-64 -5 0 -13 -10 -16 -22 -4 -13 -9 -31 -11 -40 -4 -12 0 -18 10 -18 9 0 19
12 22 27 4 15 13 34 21 41 7 7 13 25 13 38 0 22 3 23 20 14 11 -6 20 -17 20
-25 0 -8 7 -15 15 -15 8 0 15 -2 15 -4 0 -3 -29 -33 -64 -68 -34 -35 -66 -73
-70 -85 -4 -13 -12 -23 -17 -23 -5 0 -9 -7 -9 -15 0 -8 -5 -24 -12 -34 -7 -11
-8 -26 -3 -37 8 -18 9 -17 12 4 7 37 23 25 23 -17 0 -22 -5 -42 -12 -44 -10
-4 -10 -6 0 -6 21 -2 15 -31 -20 -91 -5 -8 -18 -33 -29 -55 -11 -22 -33 -64
-50 -93 -16 -29 -27 -57 -24 -63 4 -5 2 -9 -4 -9 -5 0 -12 -14 -16 -30 -4 -17
-13 -30 -21 -30 -8 0 -14 -4 -14 -10 0 -5 -7 -10 -15 -10 -11 0 -15 -11 -15
-40 0 -33 -3 -40 -20 -40 -18 0 -20 -7 -20 -60 0 -33 4 -60 10 -60 6 0 10 -9
10 -20 0 -11 -4 -20 -10 -20 -7 0 -10 -428 -10 -1265 l0 -1265 23 0 c44 0 48
-11 45 -111 l-3 -94 -32 -3 -33 -3 0 -150 0 -149 3990 0 3990 0 0 31 c0 17 -4
28 -10 24 -5 -3 -10 1 -10 9 0 9 9 16 20 16 16 0 20 -7 20 -31 0 -20 4 -29 13
-26 6 2 12 8 13 13 3 30 18 44 50 44 33 0 34 1 34 40 0 29 -4 40 -15 40 -22 0
-19 8 15 37 26 21 30 32 30 74 l0 49 65 0 65 0 0 40 c0 36 -2 40 -25 40 -25 0
-25 1 -25 80 0 47 4 80 10 80 6 0 10 -18 10 -40 l0 -40 50 0 c30 0 50 4 50 11
0 6 14 25 30 42 65 67 70 75 70 100 0 16 -8 32 -20 39 -11 7 -20 21 -20 30 0
10 -4 18 -10 18 -5 0 -10 18 -10 40 0 22 5 40 10 40 6 0 10 -18 10 -40 0 -32
4 -40 18 -40 9 0 23 -9 30 -20 21 -35 32 -22 32 40 0 57 -1 60 -25 60 -22 0
-25 4 -25 40 0 29 4 40 15 40 11 0 15 11 15 36 0 30 7 43 40 71 36 32 40 40
40 84 0 27 5 49 10 49 6 0 10 -18 10 -40 0 -29 4 -40 15 -40 11 0 15 11 15 40
0 30 7 47 25 66 25 25 33 54 15 54 -5 0 -10 18 -10 39 0 22 -5 41 -12 44 -10
3 -9 9 4 22 16 17 17 17 35 0 13 -13 14 -20 5 -23 -18 -6 -16 -82 3 -82 11 0
15 11 15 40 0 36 3 40 25 40 23 0 25 -4 25 -40 0 -29 4 -40 15 -40 11 0 15 11
15 40 0 29 -4 40 -15 40 -9 0 -15 9 -15 25 0 23 4 25 40 25 29 0 40 4 40 15 0
11 11 15 40 15 38 0 40 -2 40 -30 0 -39 10 -38 48 5 23 25 32 44 32 70 0 34
-1 35 -40 35 l-40 0 0 40 0 40 -40 0 c-33 0 -40 -3 -40 -20 0 -11 -5 -20 -10
-20 -19 0 -22 28 -6 57 8 15 15 22 16 16 0 -20 80 -17 80 2 0 11 11 15 40 15
l40 0 0 -55 c0 -30 4 -55 9 -55 5 0 21 14 34 30 29 34 37 37 37 14 0 -9 6 -14
13 -12 8 3 13 34 15 96 2 77 0 92 -13 92 -11 0 -15 -11 -15 -40 0 -36 -2 -40
-25 -40 -22 0 -25 4 -25 40 0 33 3 40 19 40 24 0 71 41 71 61 0 8 9 21 20 29
12 8 20 26 20 42 0 15 3 28 8 28 7 0 25 30 38 63 3 9 13 17 20 17 8 0 14 10
14 25 0 22 4 25 35 25 24 0 35 5 35 15 0 8 -9 15 -20 15 -17 0 -20 7 -20 40 0
36 3 40 25 40 20 0 25 5 25 25 0 23 4 25 40 25 29 0 40 4 40 15 0 9 -9 15 -21
15 -27 0 -22 33 6 38 11 2 27 6 35 9 8 4 18 7 22 7 11 2 22 16 12 16 -5 0 -15
4 -23 9 -12 8 -11 15 10 45 13 20 27 36 32 36 4 0 7 17 8 38 0 20 3 31 6 25 6
-17 73 -17 73 0 0 8 -19 13 -56 14 -65 2 -74 7 -51 31 16 15 19 15 27 2 8 -12
16 -9 45 22 19 20 35 42 35 48 0 6 7 18 15 26 20 21 19 34 -4 34 -14 0 -18 5
-14 20 5 17 8 18 20 8 12 -10 18 -9 29 7 8 10 14 24 14 31 0 7 6 14 13 17 9 3
9 9 -2 30 -7 14 -11 33 -7 42 7 18 26 11 26 -10 0 -16 79 -26 98 -12 18 14 15
27 -8 27 -11 0 -20 2 -20 4 0 3 18 22 40 44 22 21 40 47 40 58 0 13 3 15 8 6
15 -22 72 51 72 93 0 19 3 35 8 35 7 0 25 30 38 62 3 10 13 18 20 18 10 0 14
13 14 40 0 33 3 40 20 40 28 0 25 28 -6 56 -16 16 -37 24 -60 24 -33 0 -34 -1
-34 -40 0 -22 -4 -40 -10 -40 -5 0 -10 16 -10 35 0 28 9 43 46 80 26 25 55 45
65 45 17 0 19 9 19 80 0 75 1 80 21 80 13 0 46 25 85 64 l63 64 -6 56 c-6 55
-5 56 21 56 21 0 26 5 26 25 0 23 4 25 40 25 l40 0 0 175 c0 110 -4 175 -10
175 -5 0 -10 18 -10 41 0 28 -4 38 -12 33 -7 -4 -8 -3 -4 4 4 6 13 9 21 5 13
-4 15 366 15 3036 l0 3041 -3054 0 c-2705 0 -3055 -2 -3060 -15 -3 -8 -10 -15
-16 -15 -5 0 -10 7 -10 15 0 8 -4 15 -10 15 -5 0 -10 -7 -10 -15 0 -11 -11
-15 -40 -15 -29 0 -40 4 -40 15 0 22 -10 19 -47 -17 l-33 -32 0 32 c0 18 -4
32 -10 32 -5 0 -10 -18 -10 -40 0 -38 -2 -40 -30 -40 -16 0 -30 -4 -30 -10 0
-5 18 -10 40 -10 22 0 40 5 40 10 0 6 7 10 16 10 8 0 12 -4 9 -10 -3 -5 0 -10
7 -10 8 -1 4 -9 -9 -19 -13 -11 -23 -24 -23 -29 0 -6 -11 -23 -24 -39 -13 -15
-26 -38 -30 -50 -4 -13 -12 -23 -17 -23 -5 0 -9 -7 -9 -15 0 -9 -6 -12 -15 -9
-22 9 -19 44 4 44 21 0 31 19 31 55 0 13 5 25 11 27 9 3 9 10 0 26 -12 23 -31
30 -31 12 0 -5 -18 -10 -40 -10 -36 0 -40 3 -40 25 0 14 5 25 10 25 6 0 10 18
10 40 l0 40 -59 0 c-56 0 -60 -2 -95 -40 -29 -32 -43 -40 -71 -40 -34 0 -35 1
-35 40 0 22 -4 40 -10 40 -5 0 -10 -16 -10 -36z m583 -56 c-6 -32 -33 -38 -33
-8 0 11 7 20 15 20 8 0 15 5 15 12 0 6 2 9 4 7 2 -2 2 -16 -1 -31z m-53 -78
c-12 -23 -30 -27 -30 -6 0 8 8 17 18 19 9 3 18 5 20 6 1 0 -2 -8 -8 -19z
m-190 0 c0 -5 -18 -10 -40 -10 -22 0 -40 5 -40 10 0 6 18 10 40 10 22 0 40 -4
40 -10z m-110 -77 c0 -10 -32 -43 -42 -43 -4 0 -8 11 -8 25 0 20 5 25 25 25
14 0 25 -3 25 -7z m-100 -54 c0 -10 -7 -19 -15 -19 -9 0 -15 9 -15 25 0 18 4
23 15 19 8 -4 15 -15 15 -25z m150 -29 c0 -5 -4 -10 -10 -10 -5 0 -10 5 -10
10 0 6 5 10 10 10 6 0 10 -4 10 -10z m-264 -67 c-11 -11 -19 6 -11 24 8 17 8
17 12 0 3 -10 2 -21 -1 -24z m240 0 c-11 -11 -19 6 -11 24 8 17 8 17 12 0 3
-10 2 -21 -1 -24z m-169 -14 c-28 -17 -67 -59 -67 -74 0 -7 -12 -15 -27 -17
-22 -2 -29 -9 -31 -30 -5 -43 -24 -33 -20 10 2 30 7 38 26 40 12 2 22 10 22
18 0 26 50 64 84 64 26 -1 28 -2 13 -11z m93 -114 c0 -8 -4 -15 -10 -15 -5 0
-10 7 -10 15 0 8 5 15 10 15 6 0 10 -7 10 -15z m-84 -112 c-11 -11 -19 6 -11
24 8 17 8 17 12 0 3 -10 2 -21 -1 -24z m-233 -75 c4 -12 4 -24 2 -27 -3 -2 -5
1 -5 7 0 7 -7 12 -15 12 -16 0 -20 12 -8 23 12 12 21 7 26 -15z m-143 -48 c0
-39 -1 -40 -35 -40 -34 0 -35 1 -35 40 0 39 1 40 35 40 34 0 35 -1 35 -40z
m-180 -290 c0 -84 -15 -93 -23 -13 -5 49 3 83 19 83 2 0 4 -31 4 -70z m-260
-85 c0 -8 -9 -19 -20 -25 -11 -6 -20 -17 -20 -25 0 -8 -4 -15 -10 -15 -5 0
-10 18 -10 40 0 38 2 40 30 40 20 0 30 -5 30 -15z m120 -229 c0 -3 -4 -8 -10
-11 -5 -3 -10 -1 -10 4 0 6 5 11 10 11 6 0 10 -2 10 -4z m-264 -153 c-11 -11
-19 6 -11 24 8 17 8 17 12 0 3 -10 2 -21 -1 -24z m-76 -13 c0 -5 -9 -10 -19
-10 -11 0 -23 5 -26 10 -4 6 5 10 19 10 14 0 26 -4 26 -10z m-200 -199 c0 -31
-5 -53 -15 -61 -24 -20 -28 -8 -26 68 1 35 4 42 21 42 17 0 20 -7 20 -49z
m360 39 c0 -5 -2 -10 -4 -10 -3 0 -8 5 -11 10 -3 6 -1 10 4 10 6 0 11 -4 11
-10z m-313 -172 c-3 -8 -6 -5 -6 6 -1 11 2 17 5 13 3 -3 4 -12 1 -19z m-87
-178 c0 -5 -4 -10 -10 -10 -5 0 -10 5 -10 10 0 6 5 10 10 10 6 0 10 -4 10 -10z
m-58 -62 c-9 -9 -12 -7 -12 12 0 19 3 21 12 12 9 -9 9 -15 0 -24z m-22 -52 c0
-28 -4 -35 -22 -38 -16 -2 -24 -12 -29 -36 -13 -64 -29 -61 -29 6 0 53 3 62
18 62 9 0 23 9 30 20 18 30 32 24 32 -14z m108 -18 c-6 -18 -28 -21 -28 -4 0
9 7 16 16 16 9 0 14 -5 12 -12z m-240 -160 c-6 -18 -28 -21 -28 -4 0 9 7 16
16 16 9 0 14 -5 12 -12z m-23 -68 c8 -13 -5 -13 -25 0 -13 8 -13 10 2 10 9 0
20 -4 23 -10z m3364 -101 c253 -24 414 -64 660 -163 310 -126 613 -300 821
-472 311 -257 623 -698 768 -1085 92 -246 126 -375 168 -624 24 -139 27 -645
6 -790 -19 -122 -73 -334 -122 -480 -23 -66 -45 -134 -51 -151 -16 -53 -155
-325 -214 -419 -188 -299 -522 -644 -825 -851 -454 -310 -1062 -482 -1630
-461 -334 13 -605 75 -970 224 -164 67 -206 88 -335 166 -354 216 -517 356
-745 642 -244 306 -404 636 -503 1035 -50 201 -65 297 -78 494 -33 510 62 969
301 1466 61 126 210 356 311 480 214 263 425 443 709 607 556 320 1109 442
1729 382z m-3456 -28 c-4 -3 -14 -14 -21 -23 -11 -14 -11 -16 7 -11 12 3 21 1
21 -6 0 -6 -11 -13 -24 -17 -26 -6 -42 -44 -25 -55 8 -4 8 -13 0 -28 -21 -38
-33 -13 -26 53 6 50 13 67 38 94 26 27 33 30 35 16 2 -9 0 -19 -5 -23z m262
-201 c3 -5 1 -10 -4 -10 -6 0 -11 5 -11 10 0 6 2 10 4 10 3 0 8 -4 11 -10z
m-335 -135 c0 -8 -7 -15 -15 -15 -8 0 -15 7 -15 15 0 8 7 15 15 15 8 0 15 -7
15 -15z m-80 -239 c0 -49 4 -65 16 -70 28 -11 6 -22 -43 -21 -28 1 -58 -5 -72
-14 -19 -12 -25 -13 -29 -3 -2 7 -8 10 -12 7 -5 -3 -11 -1 -15 4 -3 6 3 8 15
6 19 -4 20 1 20 70 0 44 -4 75 -11 77 -6 2 21 5 60 6 l71 3 0 -65z m85 -13
c-3 -19 -11 -33 -17 -31 -19 7 -21 28 -4 28 12 0 16 11 17 43 1 25 4 33 6 18
3 -13 2 -39 -2 -58z m-225 -144 c0 -10 -4 -19 -10 -19 -5 0 -10 12 -10 26 0
14 4 23 10 19 6 -3 10 -15 10 -26z m75 -51 c11 -3 11 -7 0 -28 l-14 -25 -1 28
c0 18 -5 27 -16 27 -12 0 -14 7 -9 33 12 51 20 55 23 10 2 -25 9 -43 17 -45z
m35 28 c0 -3 -4 -8 -10 -11 -5 -3 -10 -1 -10 4 0 6 5 11 10 11 6 0 10 -2 10
-4z m-100 -61 c0 -8 -7 -15 -15 -15 -8 0 -15 7 -15 15 0 8 7 15 15 15 8 0 15
-7 15 -15z m150 -26 c0 -14 -17 -10 -23 5 -4 10 -1 13 9 9 7 -3 14 -9 14 -14z
m-166 -84 c-4 -8 -8 -15 -10 -15 -2 0 -4 7 -4 15 0 8 4 15 10 15 5 0 7 -7 4
-15z m116 6 c0 -5 -11 -18 -25 -29 -28 -23 -33 -42 -9 -42 9 0 14 -5 12 -12
-6 -18 -28 -21 -28 -4 0 9 -4 16 -9 16 -4 0 -3 18 2 40 9 32 16 40 34 40 13 0
23 -4 23 -9z m-116 -243 c-3 -4 -12 -8 -20 -8 -8 0 -13 4 -10 8 3 5 12 9 20 9
8 0 13 -4 10 -9z m-65 -94 c-11 -13 -14 -13 -21 0 -4 8 -5 21 -2 30 5 14 8 14
21 0 12 -12 13 -17 2 -30z m-78 -154 c16 0 10 -40 -11 -62 -11 -12 -20 -16
-20 -10 0 7 -4 12 -10 12 -5 0 -10 -24 -10 -53 0 -43 -5 -58 -24 -76 -22 -20
-24 -21 -28 -4 -3 10 -3 57 0 106 l5 87 33 0 c33 0 34 1 34 43 0 62 14 69 18
8 2 -28 7 -51 13 -51z m-271 -230 c0 -5 -4 -10 -10 -10 -5 0 -10 5 -10 10 0 6
5 10 10 10 6 0 10 -4 10 -10z m80 -30 c0 -39 -1 -40 -35 -40 -34 0 -35 1 -35
40 0 39 1 40 35 40 34 0 35 -1 35 -40z m80 25 c0 -8 -4 -15 -10 -15 -5 0 -10
7 -10 15 0 8 5 15 10 15 6 0 10 -7 10 -15z m-30 -56 c0 -5 -7 -9 -15 -9 -15 0
-20 12 -9 23 8 8 24 -1 24 -14z m1141 -46 c-12 -20 -14 -14 -5 12 4 9 9 14 11
11 3 -2 0 -13 -6 -23z m-1275 -40 c-11 -11 -19 6 -11 24 8 17 8 17 12 0 3 -10
2 -21 -1 -24z m-37 -177 c-27 -31 -39 -33 -39 -6 0 11 6 20 14 20 8 0 17 8 20
17 5 11 10 13 17 6 8 -8 4 -19 -12 -37z m-119 -206 c0 -53 -2 -60 -20 -60 -25
0 -40 29 -40 79 0 39 2 41 30 41 l30 0 0 -60z m-73 -77 c4 -10 10 -21 15 -24
4 -3 1 -14 -7 -25 -14 -19 -14 -18 -15 4 0 15 -6 22 -20 22 -23 0 -26 10 -8
28 17 17 28 15 35 -5z m193 -14 c0 -5 -9 -9 -20 -9 -22 0 -27 16 -7 23 15 5
27 -1 27 -14z m-280 -79 c0 -5 18 -10 40 -10 44 0 58 -26 18 -32 -15 -2 -24
-11 -26 -25 -2 -13 -10 -23 -18 -23 -8 0 -14 -9 -14 -20 0 -23 -10 -26 -28 -8
-18 18 -15 28 8 28 17 0 20 7 20 40 0 22 -4 40 -10 40 -5 0 -10 5 -10 10 0 6
5 10 10 10 6 0 10 -4 10 -10z m-49 -147 c11 -13 11 -17 2 -20 -7 -3 -13 -13
-13 -23 0 -10 -4 -22 -10 -25 -6 -4 -10 5 -10 19 0 18 -6 26 -17 27 -17 1 -17
2 0 6 9 2 17 11 17 19 0 19 14 18 31 -3z m-29 -302 c-4 -35 -7 -41 -28 -41
-21 0 -24 -4 -24 -40 0 -29 -4 -40 -15 -40 -8 0 -15 -7 -15 -15 0 -8 -7 -15
-15 -15 -8 0 -15 7 -15 15 0 8 7 15 16 15 14 0 16 11 12 81 l-5 81 43 -5 c29
-3 41 -1 37 6 -3 5 -2 7 3 4 5 -3 8 -24 6 -46z m98 -38 c0 -43 -16 -61 -22
-26 -5 34 0 53 13 53 5 0 9 -12 9 -27z m-244 -133 c8 0 14 -7 14 -15 0 -8 5
-15 12 -15 6 0 4 -7 -5 -18 -10 -10 -17 -24 -17 -30 0 -7 -4 -12 -10 -12 -5 0
-10 13 -10 29 0 17 -6 31 -14 33 -10 2 -11 9 -4 28 6 15 12 20 15 13 3 -7 11
-13 19 -13z m164 -34 c0 -3 -4 -8 -10 -11 -5 -3 -10 -1 -10 4 0 6 5 11 10 11
6 0 10 -2 10 -4z m-103 -48 c-3 -8 -6 -5 -6 6 -1 11 2 17 5 13 3 -3 4 -12 1
-19z m-22 -18 c3 -5 -3 -10 -15 -10 -12 0 -18 5 -15 10 3 6 10 10 15 10 5 0
12 -4 15 -10z m-135 -90 c0 -20 -5 -30 -15 -30 -10 0 -15 10 -15 30 0 20 5 30
15 30 10 0 15 -10 15 -30z m-50 -65 c0 -8 -7 -15 -15 -15 -8 0 -15 7 -15 15 0
8 7 15 15 15 8 0 15 -7 15 -15z m75 -154 c3 -5 1 -12 -5 -16 -5 -3 -10 1 -10
9 0 18 6 21 15 7z m-102 -31 c-3 -11 -9 -20 -14 -20 -14 0 -11 28 4 33 6 3 13
6 14 6 0 1 -1 -8 -4 -19z m77 -46 c0 -40 -3 -55 -12 -51 -7 2 -13 9 -12 15 1
7 2 30 3 52 2 62 21 47 21 -16z m-110 -4 c0 -12 -32 -50 -42 -50 -5 0 -8 7 -8
15 0 8 5 15 10 15 6 0 10 7 10 15 0 8 7 15 15 15 8 0 15 -4 15 -10z m-102 -32
c-6 -18 -28 -21 -28 -4 0 9 7 16 16 16 9 0 14 -5 12 -12z m52 -65 c0 -25 -1
-26 -16 -11 -9 9 -13 21 -10 27 13 20 26 11 26 -16z m105 17 c4 -6 0 -22 -9
-35 -9 -13 -16 -33 -16 -45 0 -11 -4 -20 -9 -20 -9 0 -21 89 -14 103 6 11 41
9 48 -3z m-135 -52 c-1 -18 -25 -48 -39 -48 -6 0 -11 -7 -11 -15 0 -8 -4 -15
-10 -15 -5 0 -10 7 -10 15 0 8 5 15 10 15 6 0 10 4 10 10 0 12 32 50 42 50 5
0 8 -6 8 -12z m80 -58 c0 -5 -2 -10 -4 -10 -3 0 -8 5 -11 10 -3 6 -1 10 4 10
6 0 11 -4 11 -10z m-56 -111 c-3 -5 -10 -7 -15 -3 -5 3 -7 10 -3 15 3 5 10 7
15 3 5 -3 7 -10 3 -15z m-44 -23 c0 -2 3 -12 6 -21 6 -15 4 -15 -15 -4 -25 16
-27 29 -6 29 8 0 15 -2 15 -4z m-60 -106 c0 -5 -2 -10 -4 -10 -3 0 -8 5 -11
10 -3 6 -1 10 4 10 6 0 11 -4 11 -10z m9790 -30 c0 -22 -4 -40 -10 -40 -5 0
-10 18 -10 40 0 22 5 40 10 40 6 0 10 -18 10 -40z m-9840 -75 c0 -30 -4 -55
-10 -55 -5 0 -10 25 -10 55 0 30 5 55 10 55 6 0 10 -25 10 -55z m9760 -66 c0
-24 -23 -21 -28 4 -2 10 3 17 12 17 10 0 16 -9 16 -21z m-80 -160 c0 -24 -23
-21 -28 4 -2 10 3 17 12 17 10 0 16 -9 16 -21z m-9763 -145 c-3 -3 -12 -4 -19
-1 -8 3 -5 6 6 6 11 1 17 -2 13 -5z m-57 -34 c0 -5 -4 -10 -10 -10 -5 0 -10 5
-10 10 0 6 5 10 10 10 6 0 10 -4 10 -10z m-8 -52 c-9 -9 -15 -9 -24 0 -9 9 -7
12 12 12 19 0 21 -3 12 -12z m-72 -88 c0 -11 -4 -20 -10 -20 -5 0 -10 9 -10
20 0 11 5 20 10 20 6 0 10 -9 10 -20z m-11 -77 c-7 -10 -15 -20 -16 -22 -1 -2
-9 2 -18 9 -10 8 -15 9 -15 1 0 -6 -4 -11 -10 -11 -5 0 -10 9 -10 20 0 17 7
20 41 20 38 0 40 -1 28 -17z m9765 -78 c-4 -8 -8 -15 -10 -15 -2 0 -4 7 -4 15
0 8 4 15 10 15 5 0 7 -7 4 -15z m-174 -155 c0 -5 -2 -10 -4 -10 -3 0 -8 5 -11
10 -3 6 -1 10 4 10 6 0 11 -4 11 -10z m-115 -220 c4 -6 -5 -10 -19 -10 -14 0
-26 5 -26 10 0 6 9 10 19 10 11 0 23 -4 26 -10z m-185 -341 c0 -5 -4 -9 -10
-9 -5 0 -10 -13 -10 -30 0 -16 -4 -30 -10 -30 -11 0 -14 73 -4 83 8 8 34 -3
34 -14z m-180 -264 c0 -25 -4 -45 -10 -45 -11 0 -14 73 -3 83 11 12 13 8 13
-38z m-67 -141 c-7 -19 -10 -18 -16 5 -3 13 -1 18 9 14 7 -2 10 -11 7 -19z
m-73 -74 c0 -5 -4 -10 -10 -10 -5 0 -10 5 -10 10 0 6 5 10 10 10 6 0 10 -4 10
-10z m-344 -487 c-10 -10 -19 5 -10 18 6 11 8 11 12 0 2 -7 1 -15 -2 -18z
m-316 -393 c0 -5 -2 -10 -4 -10 -3 0 -8 5 -11 10 -3 6 -1 10 4 10 6 0 11 -4
11 -10z m0 -324 c0 -7 -18 -33 -40 -56 -26 -28 -40 -37 -40 -26 0 9 -8 16 -20
16 -11 0 -20 4 -20 8 0 14 23 32 42 32 10 0 23 9 30 20 14 23 48 27 48 6z
m-8197 -227 c34 -18 37 -27 37 -132 l0 -98 41 23 c37 20 39 23 20 31 -23 11
-46 60 -37 82 5 15 9 14 37 -2 47 -28 64 -51 64 -92 0 -41 -13 -58 -66 -90
-44 -27 -80 -27 -107 2 -18 20 -21 35 -22 147 -3 161 -6 149 33 129z"/>
<path d="M4875 7444 c-337 -33 -794 -199 -1086 -394 -530 -354 -820 -760
-1023 -1430 -73 -242 -91 -402 -83 -725 7 -259 21 -354 88 -589 48 -164 72
-230 128 -350 99 -208 158 -301 337 -526 190 -240 487 -477 764 -612 271 -132
507 -206 792 -249 193 -29 510 -32 678 -5 209 33 507 114 645 176 168 76 436
239 576 352 269 216 481 476 640 783 83 160 126 270 183 468 86 294 100 405
93 722 -5 215 -9 256 -36 395 -108 544 -391 1040 -785 1379 -271 233 -691 444
-1075 541 -223 56 -279 62 -546 65 -137 2 -268 1 -290 -1z m-164 -1416 c158
-55 244 -126 312 -256 46 -88 60 -165 55 -299 -5 -117 -31 -207 -73 -249 l-22
-21 62 -6 c86 -8 165 -40 245 -100 114 -87 172 -174 201 -303 18 -78 18 -344
0 -404 -46 -157 -142 -294 -256 -365 -169 -105 -185 -107 -1135 -103 l-745 3
0 165 0 165 246 3 c245 2 247 3 252 24 4 12 6 341 7 730 l0 708 -254 0 -255 0
-3 166 c-2 91 -1 168 1 170 2 2 293 2 645 1 l641 -3 76 -26z m2322 24 l39 -7
48 -134 c27 -74 54 -139 60 -145 5 -5 10 -14 10 -19 0 -5 -184 -7 -427 -5
l-428 3 -3 -900 c-1 -505 -6 -903 -11 -908 -10 -10 -339 -21 -362 -12 -12 4
-14 130 -14 908 l0 902 -419 3 -419 2 6 53 c6 61 64 249 80 259 14 9 1791 9
1840 0z"/>
<path d="M4283 5723 l-43 -4 0 -255 0 -254 148 0 c195 1 231 14 291 105 23 36
26 50 26 130 -1 148 -50 227 -161 261 -49 15 -194 24 -261 17z"/>
<path d="M4240 4576 l0 -314 168 -7 c92 -4 232 -5 312 -2 135 6 149 9 207 37
68 34 99 68 135 146 19 41 23 66 23 160 0 106 -1 113 -30 159 -40 64 -101 110
-165 124 -30 7 -172 11 -350 11 l-300 0 0 -314z"/>
<path d="M3410 10150 c0 -5 7 -10 15 -10 8 0 15 5 15 10 0 6 -7 10 -15 10 -8
0 -15 -4 -15 -10z"/>
<path d="M3280 10010 c0 -5 7 -10 15 -10 8 0 15 5 15 10 0 6 -7 10 -15 10 -8
0 -15 -4 -15 -10z"/>
<path d="M3264 9969 c-3 -6 -1 -16 5 -22 8 -8 11 -5 11 11 0 24 -5 28 -16 11z"/>
<path d="M3225 9830 c3 -5 8 -10 11 -10 2 0 4 5 4 10 0 6 -5 10 -11 10 -5 0
-7 -4 -4 -10z"/>
<path d="M3267 9783 c-11 -10 -8 -20 7 -26 10 -4 12 0 9 14 -6 21 -7 22 -16
12z"/>
<path d="M3257 9703 c-12 -11 -8 -23 8 -23 8 0 15 7 15 15 0 16 -12 20 -23 8z"/>
<path d="M3096 9684 c-13 -9 -16 -18 -10 -24 13 -13 37 4 32 23 -3 14 -5 14
-22 1z"/>
<path d="M2866 9535 c-3 -8 -1 -15 4 -15 6 0 10 7 10 15 0 8 -2 15 -4 15 -2 0
-6 -7 -10 -15z"/>
<path d="M3020 9535 c-10 -12 -10 -15 4 -15 9 0 16 7 16 15 0 8 -2 15 -4 15
-2 0 -9 -7 -16 -15z"/>
<path d="M2968 9353 c7 -3 16 -2 19 1 4 3 -2 6 -13 5 -11 0 -14 -3 -6 -6z"/>
<path d="M2705 9307 c-4 -10 -5 -21 -1 -24 10 -10 18 4 13 24 -4 17 -4 17 -12
0z"/>
<path d="M2480 8949 c0 -5 5 -7 10 -4 6 3 10 1 10 -5 0 -6 5 -8 10 -5 17 10
11 25 -10 25 -11 0 -20 -5 -20 -11z"/>
<path d="M2600 8952 c0 -10 22 -32 32 -32 4 0 8 9 8 20 0 13 -7 20 -20 20 -11
0 -20 -4 -20 -8z"/>
<path d="M2465 8921 c-3 -5 -1 -12 5 -16 5 -3 10 1 10 9 0 18 -6 21 -15 7z"/>
<path d="M2367 8809 c-10 -11 -15 -24 -11 -27 4 -4 9 -1 11 6 3 6 11 12 19 12
8 0 14 7 14 15 0 21 -12 19 -33 -6z"/>
<path d="M2210 8631 c0 -5 7 -16 14 -24 9 -8 17 -40 19 -73 3 -42 3 -36 3 21
-1 68 -4 80 -18 83 -10 2 -18 -1 -18 -7z"/>
<path d="M2145 8490 c-3 -5 -1 -10 4 -10 6 0 11 5 11 10 0 6 -2 10 -4 10 -3 0
-8 -4 -11 -10z"/>
<path d="M1814 7534 c-4 -14 -2 -30 5 -37 12 -12 18 -9 21 13 7 50 -14 70 -26
24z"/>
<path d="M1671 7303 c0 -7 -17 -30 -36 -50 -36 -38 -47 -83 -20 -83 8 0 15 7
15 15 0 8 7 15 15 15 16 0 39 71 32 98 -3 9 -5 11 -6 5z"/>
<path d="M1576 7144 c-18 -18 -18 -19 -2 -22 22 -5 29 2 24 24 -3 16 -4 16
-22 -2z"/>
<path d="M1531 7041 c-8 -9 -28 -31 -45 -48 l-30 -33 35 0 c33 0 35 2 46 48 6
26 10 48 9 48 0 1 -7 -5 -15 -15z"/>
<path d="M1410 6840 c0 -29 4 -40 15 -40 11 0 15 11 15 40 0 29 -4 40 -15 40
-11 0 -15 -11 -15 -40z"/>
<path d="M1485 6830 l-29 -30 32 0 c29 0 32 3 32 30 0 17 -1 30 -3 30 -2 0
-16 -13 -32 -30z"/>
<path d="M1260 6785 c0 -8 5 -15 10 -15 6 0 10 7 10 15 0 8 -4 15 -10 15 -5 0
-10 -7 -10 -15z"/>
<path d="M1360 6785 c0 -8 7 -15 15 -15 8 0 15 7 15 15 0 8 -7 15 -15 15 -8 0
-15 -7 -15 -15z"/>
<path d="M1336 6731 c-17 -19 -17 -20 3 -31 19 -10 21 -8 21 20 0 35 -1 36
-24 11z"/>
<path d="M1410 6680 c0 -73 6 -82 40 -53 25 22 29 93 5 93 -8 0 -15 7 -15 15
0 8 -7 15 -15 15 -12 0 -15 -14 -15 -70z"/>
<path d="M1347 6603 c-12 -12 -7 -43 7 -43 9 0 12 8 8 25 -5 27 -6 28 -15 18z"/>
<path d="M1261 6577 c-6 -8 -8 -17 -4 -20 11 -12 19 -7 20 13 2 24 -1 25 -16
7z"/>
<path d="M1381 6574 c0 -11 3 -14 6 -6 3 7 2 16 -1 19 -3 4 -6 -2 -5 -13z"/>
<path d="M1200 6520 c0 -5 5 -10 10 -10 6 0 10 5 10 10 0 6 -4 10 -10 10 -5 0
-10 -4 -10 -10z"/>
<path d="M1260 6486 c0 -2 7 -7 16 -10 8 -3 12 -2 9 4 -6 10 -25 14 -25 6z"/>
<path d="M1417 6443 c-12 -11 -8 -23 8 -23 8 0 15 7 15 15 0 16 -12 20 -23 8z"/>
<path d="M1257 6423 c-12 -11 -8 -23 8 -23 8 0 15 7 15 15 0 16 -12 20 -23 8z"/>
<path d="M1358 6403 c6 -2 18 -2 25 0 6 3 1 5 -13 5 -14 0 -19 -2 -12 -5z"/>
<path d="M1097 6343 c-12 -11 -8 -23 8 -23 8 0 15 7 15 15 0 16 -12 20 -23 8z"/>
<path d="M1360 6300 c0 -23 10 -26 28 -8 18 18 15 28 -8 28 -13 0 -20 -7 -20
-20z"/>
<path d="M1097 6183 c-12 -11 -8 -23 8 -23 8 0 15 7 15 15 0 16 -12 20 -23 8z"/>
<path d="M1140 6156 c0 -2 7 -6 15 -10 8 -3 15 -1 15 4 0 6 -7 10 -15 10 -8 0
-15 -2 -15 -4z"/>
<path d="M1121 6124 c0 -11 3 -14 6 -6 3 7 2 16 -1 19 -3 4 -6 -2 -5 -13z"/>
<path d="M1080 6040 c0 -22 5 -40 10 -40 6 0 10 18 10 40 0 22 -4 40 -10 40
-5 0 -10 -18 -10 -40z"/>
<path d="M1180 5912 c0 -5 -9 -19 -20 -32 -11 -13 -20 -27 -20 -32 0 -15 48
-8 54 8 9 25 7 64 -4 64 -5 0 -10 -4 -10 -8z"/>
<path d="M940 5620 c0 -11 4 -20 9 -20 5 0 7 9 4 20 -3 11 -7 20 -9 20 -2 0
-4 -9 -4 -20z"/>
<path d="M910 5585 c0 -8 5 -15 10 -15 6 0 10 7 10 15 0 8 -4 15 -10 15 -5 0
-10 -7 -10 -15z"/>
<path d="M940 5540 c0 -11 5 -20 10 -20 6 0 10 9 10 20 0 11 -4 20 -10 20 -5
0 -10 -9 -10 -20z"/>
<path d="M870 5535 c-10 -12 -10 -15 4 -15 9 0 16 7 16 15 0 8 -2 15 -4 15 -2
0 -9 -7 -16 -15z"/>
<path d="M828 5468 c-7 -13 -11 -29 -10 -35 2 -7 -2 -13 -8 -13 -5 0 -10 -6
-10 -14 0 -8 -6 -16 -14 -19 -16 -6 -47 -95 -35 -103 5 -3 9 3 9 14 0 11 9 31
20 45 11 14 20 30 20 35 0 6 14 23 30 39 17 15 30 38 30 50 0 29 -16 29 -32 1z"/>
<path d="M880 5430 c0 -5 5 -10 10 -10 6 0 10 5 10 10 0 6 -4 10 -10 10 -5 0
-10 -4 -10 -10z"/>
<path d="M851 5385 c-13 -14 -18 -25 -11 -25 15 0 42 28 38 40 -2 5 -14 -2
-27 -15z"/>
<path d="M700 5075 c0 -8 5 -15 10 -15 6 0 10 7 10 15 0 8 -4 15 -10 15 -5 0
-10 -7 -10 -15z"/>
<path d="M640 4869 c0 -5 5 -7 10 -4 6 3 10 8 10 11 0 2 -4 4 -10 4 -5 0 -10
-5 -10 -11z"/>
<path d="M540 4730 c0 -5 5 -10 10 -10 6 0 10 5 10 10 0 6 -4 10 -10 10 -5 0
-10 -4 -10 -10z"/>
<path d="M466 4655 c-3 -8 -1 -15 4 -15 6 0 10 7 10 15 0 8 -2 15 -4 15 -2 0
-6 -7 -10 -15z"/>
<path d="M400 4469 c0 -7 -8 -18 -17 -25 -22 -15 -8 -32 14 -18 24 15 36 54
18 54 -8 0 -15 -5 -15 -11z"/>
<path d="M356 4385 c4 -8 10 -15 14 -15 4 0 10 7 14 15 4 10 -1 15 -14 15 -13
0 -18 -5 -14 -15z"/>
<path d="M320 4343 c0 -13 -4 -23 -10 -23 -5 0 -10 -15 -9 -32 1 -31 1 -32 9
-8 4 14 9 21 10 15 1 -5 5 1 11 13 6 15 5 30 -1 40 -8 15 -9 14 -10 -5z"/>
<path d="M254 4255 c-18 -14 -18 -14 9 -15 17 0 27 5 27 15 0 19 -11 19 -36 0z"/>
<path d="M220 4140 c6 -11 13 -20 15 -20 3 0 5 9 5 20 0 11 -7 20 -15 20 -13
0 -14 -4 -5 -20z"/>
<path d="M240 4090 c0 -5 7 -10 16 -10 8 0 12 5 9 10 -3 6 -10 10 -16 10 -5 0
-9 -4 -9 -10z"/>
<path d="M222 3878 c-7 -7 -12 -17 -12 -24 0 -7 -6 -14 -12 -17 -7 -2 -10 -7
-6 -11 11 -13 48 18 48 41 0 26 -2 27 -18 11z"/>
<path d="M110 3830 c0 -5 4 -10 9 -10 6 0 13 5 16 10 3 6 -1 10 -9 10 -9 0
-16 -4 -16 -10z"/>
<path d="M80 3789 c0 -5 5 -7 10 -4 6 3 10 8 10 11 0 2 -4 4 -10 4 -5 0 -10
-5 -10 -11z"/>
<path d="M152 3780 c-7 -11 -9 -20 -4 -20 4 0 13 9 20 20 7 11 9 20 4 20 -4 0
-13 -9 -20 -20z"/>
<path d="M195 3690 c-3 -5 1 -10 10 -10 9 0 13 5 10 10 -3 6 -8 10 -10 10 -2
0 -7 -4 -10 -10z"/>
<path d="M137 3623 c-12 -11 -8 -23 8 -23 8 0 15 7 15 15 0 16 -12 20 -23 8z"/>
<path d="M10160 3570 c0 -36 9 -38 38 -7 29 31 28 37 -8 37 -27 0 -30 -3 -30
-30z"/>
<path d="M10108 3523 c-26 -4 -28 -8 -28 -48 0 -34 3 -43 14 -39 8 3 17 21 20
40 5 25 12 34 26 34 11 0 20 5 20 10 0 10 -3 10 -52 3z"/>
<path d="M54 3470 c-6 -6 -9 -33 -6 -60 4 -45 3 -50 -16 -50 -22 0 -32 -18
-32 -56 0 -29 16 -32 25 -5 4 12 12 18 21 14 10 -4 14 2 14 21 0 14 5 26 10
26 6 0 10 27 10 60 0 59 -6 70 -26 50z"/>
<path d="M9978 3193 c7 -3 16 -2 19 1 4 3 -2 6 -13 5 -11 0 -14 -3 -6 -6z"/>
<path d="M9578 2483 c7 -3 16 -2 19 1 4 3 -2 6 -13 5 -11 0 -14 -3 -6 -6z"/>
<path d="M9420 2250 c0 -5 5 -10 10 -10 6 0 10 5 10 10 0 6 -4 10 -10 10 -5 0
-10 -4 -10 -10z"/>
<path d="M9360 2064 c0 -17 22 -14 28 4 2 7 -3 12 -12 12 -9 0 -16 -7 -16 -16z"/>
<path d="M9290 2035 c0 -19 5 -35 10 -35 6 0 10 16 10 35 0 19 -4 35 -10 35
-5 0 -10 -16 -10 -35z"/>
<path d="M9293 1880 c0 -25 2 -35 4 -22 2 12 2 32 0 45 -2 12 -4 2 -4 -23z"/>
<path d="M9197 1842 c1 -8 3 -18 3 -23 0 -5 16 -9 35 -9 24 0 35 5 35 15 0 10
-10 15 -34 15 -19 0 -36 3 -39 8 -2 4 -2 1 0 -6z"/>
<path d="M9120 1726 c0 -24 -5 -36 -17 -39 -10 -3 -3 -5 15 -6 31 -1 32 0 32
39 0 29 -4 40 -15 40 -10 0 -15 -10 -15 -34z"/>
<path d="M8856 1271 c-3 -5 1 -11 9 -15 9 -3 15 0 15 9 0 16 -16 20 -24 6z"/>
<path d="M8650 1081 c0 -23 5 -41 10 -41 6 0 10 15 10 34 0 19 -4 38 -10 41
-6 4 -10 -10 -10 -34z"/>
<path d="M8480 920 c0 -29 4 -40 15 -40 11 0 15 11 15 40 0 29 -4 40 -15 40
-11 0 -15 -11 -15 -40z"/>
<path d="M8490 761 c0 -23 5 -41 10 -41 6 0 10 15 10 34 0 19 -4 38 -10 41 -6
4 -10 -10 -10 -34z"/>
<path d="M8480 623 c0 -8 5 -13 12 -11 18 6 21 25 3 25 -8 0 -15 -7 -15 -14z"/>
<path d="M8458 563 c7 -3 16 -2 19 1 4 3 -2 6 -13 5 -11 0 -14 -3 -6 -6z"/>
<path d="M8170 275 c0 -19 5 -35 10 -35 6 0 10 16 10 35 0 19 -4 35 -10 35 -5
0 -10 -16 -10 -35z"/>
<path d="M8160 70 c0 -5 7 -10 15 -10 8 0 15 5 15 10 0 6 -7 10 -15 10 -8 0
-15 -4 -15 -10z"/>
</g>
</svg>
